<mxfile host="drawio-plugin" modified="2024-02-20T14:26:14.387Z" agent="5.0 (Windows NT 10.0; Win64; x64) AppleWebKit/537.36 (KHTML, like Gecko) Chrome/111.0.0.0 Safari/537.36" etag="j34DK1U_vEgR0yttXlHf" version="20.5.3" type="embed"><diagram name="Seite-1" id="ZUy_uGdwAOSeV0dl44Cy"><mxGraphModel dx="2169" dy="2403" grid="1" gridSize="10" guides="1" tooltips="1" connect="1" arrows="1" fold="1" page="0" pageScale="1" pageWidth="1169" pageHeight="827" math="0" shadow="0"><root><mxCell id="0"/><mxCell id="1" parent="0"/><mxCell id="Y9lWMFhnYqN-Vg71fqgo-1" value="Spaceship" style="swimlane;fontStyle=1;align=center;verticalAlign=top;childLayout=stackLayout;horizontal=1;startSize=26;horizontalStack=0;resizeParent=1;resizeParentMax=0;resizeLast=0;collapsible=1;marginBottom=0;whiteSpace=wrap;html=1;" parent="1" vertex="1"><mxGeometry x="-770" y="-1360" width="170" height="216" as="geometry"/></mxCell><mxCell id="sVbA26OMhiQCjbZiH2BP-5" value="+ x: float" style="text;strokeColor=none;fillColor=none;align=left;verticalAlign=top;spacingLeft=4;spacingRight=4;overflow=hidden;rotatable=0;points=[[0,0.5],[1,0.5]];portConstraint=eastwest;whiteSpace=wrap;html=1;" parent="Y9lWMFhnYqN-Vg71fqgo-1" vertex="1"><mxGeometry y="26" width="170" height="26" as="geometry"/></mxCell><mxCell id="sVbA26OMhiQCjbZiH2BP-3" value="+ y: float" style="text;strokeColor=none;fillColor=none;align=left;verticalAlign=top;spacingLeft=4;spacingRight=4;overflow=hidden;rotatable=0;points=[[0,0.5],[1,0.5]];portConstraint=eastwest;whiteSpace=wrap;html=1;" parent="Y9lWMFhnYqN-Vg71fqgo-1" vertex="1"><mxGeometry y="52" width="170" height="26" as="geometry"/></mxCell><mxCell id="Y9lWMFhnYqN-Vg71fqgo-32" value="+ move_speed: float" style="text;strokeColor=none;fillColor=none;align=left;verticalAlign=top;spacingLeft=4;spacingRight=4;overflow=hidden;rotatable=0;points=[[0,0.5],[1,0.5]];portConstraint=eastwest;whiteSpace=wrap;html=1;" parent="Y9lWMFhnYqN-Vg71fqgo-1" vertex="1"><mxGeometry y="78" width="170" height="26" as="geometry"/></mxCell><mxCell id="Y9lWMFhnYqN-Vg71fqgo-33" value="+ hp: int" style="text;strokeColor=none;fillColor=none;align=left;verticalAlign=top;spacingLeft=4;spacingRight=4;overflow=hidden;rotatable=0;points=[[0,0.5],[1,0.5]];portConstraint=eastwest;whiteSpace=wrap;html=1;" parent="Y9lWMFhnYqN-Vg71fqgo-1" vertex="1"><mxGeometry y="104" width="170" height="26" as="geometry"/></mxCell><mxCell id="Y9lWMFhnYqN-Vg71fqgo-36" value="+ sprite: Sprite" style="text;strokeColor=none;fillColor=none;align=left;verticalAlign=top;spacingLeft=4;spacingRight=4;overflow=hidden;rotatable=0;points=[[0,0.5],[1,0.5]];portConstraint=eastwest;whiteSpace=wrap;html=1;" parent="Y9lWMFhnYqN-Vg71fqgo-1" vertex="1"><mxGeometry y="130" width="170" height="26" as="geometry"/></mxCell><mxCell id="Y9lWMFhnYqN-Vg71fqgo-3" value="" style="line;strokeWidth=1;fillColor=none;align=left;verticalAlign=middle;spacingTop=-1;spacingLeft=3;spacingRight=3;rotatable=0;labelPosition=right;points=[];portConstraint=eastwest;strokeColor=inherit;" parent="Y9lWMFhnYqN-Vg71fqgo-1" vertex="1"><mxGeometry y="156" width="170" height="8" as="geometry"/></mxCell><mxCell id="Y9lWMFhnYqN-Vg71fqgo-4" value="+ move(x: float; y: float)" style="text;strokeColor=none;fillColor=none;align=left;verticalAlign=top;spacingLeft=4;spacingRight=4;overflow=hidden;rotatable=0;points=[[0,0.5],[1,0.5]];portConstraint=eastwest;whiteSpace=wrap;html=1;" parent="Y9lWMFhnYqN-Vg71fqgo-1" vertex="1"><mxGeometry y="164" width="170" height="26" as="geometry"/></mxCell><mxCell id="Y9lWMFhnYqN-Vg71fqgo-37" value="+ shoot(): Bullet" style="text;strokeColor=none;fillColor=none;align=left;verticalAlign=top;spacingLeft=4;spacingRight=4;overflow=hidden;rotatable=0;points=[[0,0.5],[1,0.5]];portConstraint=eastwest;whiteSpace=wrap;html=1;" parent="Y9lWMFhnYqN-Vg71fqgo-1" vertex="1"><mxGeometry y="190" width="170" height="26" as="geometry"/></mxCell><mxCell id="Y9lWMFhnYqN-Vg71fqgo-5" value="Weapon" style="swimlane;fontStyle=1;align=center;verticalAlign=top;childLayout=stackLayout;horizontal=1;startSize=26;horizontalStack=0;resizeParent=1;resizeParentMax=0;resizeLast=0;collapsible=1;marginBottom=0;whiteSpace=wrap;html=1;" parent="1" vertex="1"><mxGeometry x="-500" y="-1360" width="180" height="88" as="geometry"/></mxCell><mxCell id="Y9lWMFhnYqN-Vg71fqgo-39" value="+ cooldown: float" style="text;strokeColor=none;fillColor=none;align=left;verticalAlign=top;spacingLeft=4;spacingRight=4;overflow=hidden;rotatable=0;points=[[0,0.5],[1,0.5]];portConstraint=eastwest;whiteSpace=wrap;html=1;" parent="Y9lWMFhnYqN-Vg71fqgo-5" vertex="1"><mxGeometry y="26" width="180" height="26" as="geometry"/></mxCell><mxCell id="Y9lWMFhnYqN-Vg71fqgo-7" value="" style="line;strokeWidth=1;fillColor=none;align=left;verticalAlign=middle;spacingTop=-1;spacingLeft=3;spacingRight=3;rotatable=0;labelPosition=right;points=[];portConstraint=eastwest;strokeColor=inherit;" parent="Y9lWMFhnYqN-Vg71fqgo-5" vertex="1"><mxGeometry y="52" width="180" height="8" as="geometry"/></mxCell><mxCell id="Y9lWMFhnYqN-Vg71fqgo-8" value="+ shoot(x: float; y: float): Bullet" style="text;strokeColor=none;fillColor=none;align=left;verticalAlign=top;spacingLeft=4;spacingRight=4;overflow=hidden;rotatable=0;points=[[0,0.5],[1,0.5]];portConstraint=eastwest;whiteSpace=wrap;html=1;" parent="Y9lWMFhnYqN-Vg71fqgo-5" vertex="1"><mxGeometry y="60" width="180" height="28" as="geometry"/></mxCell><mxCell id="Y9lWMFhnYqN-Vg71fqgo-9" value="Game" style="swimlane;fontStyle=1;align=center;verticalAlign=top;childLayout=stackLayout;horizontal=1;startSize=26;horizontalStack=0;resizeParent=1;resizeParentMax=0;resizeLast=0;collapsible=1;marginBottom=0;whiteSpace=wrap;html=1;" parent="1" vertex="1"><mxGeometry x="-930" y="-1070" width="180" height="164" as="geometry"/></mxCell><mxCell id="Y9lWMFhnYqN-Vg71fqgo-11" value="" style="line;strokeWidth=1;fillColor=none;align=left;verticalAlign=middle;spacingTop=-1;spacingLeft=3;spacingRight=3;rotatable=0;labelPosition=right;points=[];portConstraint=eastwest;strokeColor=inherit;" parent="Y9lWMFhnYqN-Vg71fqgo-9" vertex="1"><mxGeometry y="26" width="180" height="8" as="geometry"/></mxCell><mxCell id="Y9lWMFhnYqN-Vg71fqgo-12" value="+ spawn_asteroid(): Asteroid?" style="text;strokeColor=none;fillColor=none;align=left;verticalAlign=top;spacingLeft=4;spacingRight=4;overflow=hidden;rotatable=0;points=[[0,0.5],[1,0.5]];portConstraint=eastwest;whiteSpace=wrap;html=1;" parent="Y9lWMFhnYqN-Vg71fqgo-9" vertex="1"><mxGeometry y="34" width="180" height="26" as="geometry"/></mxCell><mxCell id="Y9lWMFhnYqN-Vg71fqgo-27" value="+ render()" style="text;strokeColor=none;fillColor=none;align=left;verticalAlign=top;spacingLeft=4;spacingRight=4;overflow=hidden;rotatable=0;points=[[0,0.5],[1,0.5]];portConstraint=eastwest;whiteSpace=wrap;html=1;" parent="Y9lWMFhnYqN-Vg71fqgo-9" vertex="1"><mxGeometry y="60" width="180" height="26" as="geometry"/></mxCell><mxCell id="Y9lWMFhnYqN-Vg71fqgo-28" value="+ process_input()" style="text;strokeColor=none;fillColor=none;align=left;verticalAlign=top;spacingLeft=4;spacingRight=4;overflow=hidden;rotatable=0;points=[[0,0.5],[1,0.5]];portConstraint=eastwest;whiteSpace=wrap;html=1;" parent="Y9lWMFhnYqN-Vg71fqgo-9" vertex="1"><mxGeometry y="86" width="180" height="26" as="geometry"/></mxCell><mxCell id="Y9lWMFhnYqN-Vg71fqgo-29" value="+ handle_collisions()" style="text;strokeColor=none;fillColor=none;align=left;verticalAlign=top;spacingLeft=4;spacingRight=4;overflow=hidden;rotatable=0;points=[[0,0.5],[1,0.5]];portConstraint=eastwest;whiteSpace=wrap;html=1;" parent="Y9lWMFhnYqN-Vg71fqgo-9" vertex="1"><mxGeometry y="112" width="180" height="26" as="geometry"/></mxCell><mxCell id="WrKVvXKX3kZ2d2W6lTKQ-3" value="+ gameover()" style="text;strokeColor=none;fillColor=none;align=left;verticalAlign=top;spacingLeft=4;spacingRight=4;overflow=hidden;rotatable=0;points=[[0,0.5],[1,0.5]];portConstraint=eastwest;whiteSpace=wrap;html=1;" parent="Y9lWMFhnYqN-Vg71fqgo-9" vertex="1"><mxGeometry y="138" width="180" height="26" as="geometry"/></mxCell><mxCell id="Y9lWMFhnYqN-Vg71fqgo-17" value="Bullet" style="swimlane;fontStyle=1;align=center;verticalAlign=top;childLayout=stackLayout;horizontal=1;startSize=26;horizontalStack=0;resizeParent=1;resizeParentMax=0;resizeLast=0;collapsible=1;marginBottom=0;whiteSpace=wrap;html=1;" parent="1" vertex="1"><mxGeometry x="-500" y="-1640" width="180" height="190" as="geometry"/></mxCell><mxCell id="sVbA26OMhiQCjbZiH2BP-2" value="+ x: float" style="text;strokeColor=none;fillColor=none;align=left;verticalAlign=top;spacingLeft=4;spacingRight=4;overflow=hidden;rotatable=0;points=[[0,0.5],[1,0.5]];portConstraint=eastwest;whiteSpace=wrap;html=1;" parent="Y9lWMFhnYqN-Vg71fqgo-17" vertex="1"><mxGeometry y="26" width="180" height="26" as="geometry"/></mxCell><mxCell id="sVbA26OMhiQCjbZiH2BP-1" value="+ y: float" style="text;strokeColor=none;fillColor=none;align=left;verticalAlign=top;spacingLeft=4;spacingRight=4;overflow=hidden;rotatable=0;points=[[0,0.5],[1,0.5]];portConstraint=eastwest;whiteSpace=wrap;html=1;" parent="Y9lWMFhnYqN-Vg71fqgo-17" vertex="1"><mxGeometry y="52" width="180" height="26" as="geometry"/></mxCell><mxCell id="Y9lWMFhnYqN-Vg71fqgo-18" value="+ damage: int" style="text;strokeColor=none;fillColor=none;align=left;verticalAlign=top;spacingLeft=4;spacingRight=4;overflow=hidden;rotatable=0;points=[[0,0.5],[1,0.5]];portConstraint=eastwest;whiteSpace=wrap;html=1;" parent="Y9lWMFhnYqN-Vg71fqgo-17" vertex="1"><mxGeometry y="78" width="180" height="26" as="geometry"/></mxCell><mxCell id="Y9lWMFhnYqN-Vg71fqgo-40" value="+ sprite: Sprite" style="text;strokeColor=none;fillColor=none;align=left;verticalAlign=top;spacingLeft=4;spacingRight=4;overflow=hidden;rotatable=0;points=[[0,0.5],[1,0.5]];portConstraint=eastwest;whiteSpace=wrap;html=1;" parent="Y9lWMFhnYqN-Vg71fqgo-17" vertex="1"><mxGeometry y="104" width="180" height="26" as="geometry"/></mxCell><mxCell id="Y9lWMFhnYqN-Vg71fqgo-41" value="+ move_speed: float" style="text;strokeColor=none;fillColor=none;align=left;verticalAlign=top;spacingLeft=4;spacingRight=4;overflow=hidden;rotatable=0;points=[[0,0.5],[1,0.5]];portConstraint=eastwest;whiteSpace=wrap;html=1;" parent="Y9lWMFhnYqN-Vg71fqgo-17" vertex="1"><mxGeometry y="130" width="180" height="26" as="geometry"/></mxCell><mxCell id="Y9lWMFhnYqN-Vg71fqgo-19" value="" style="line;strokeWidth=1;fillColor=none;align=left;verticalAlign=middle;spacingTop=-1;spacingLeft=3;spacingRight=3;rotatable=0;labelPosition=right;points=[];portConstraint=eastwest;strokeColor=inherit;" parent="Y9lWMFhnYqN-Vg71fqgo-17" vertex="1"><mxGeometry y="156" width="180" height="8" as="geometry"/></mxCell><mxCell id="Y9lWMFhnYqN-Vg71fqgo-20" value="+ move(x: float; y:float)" style="text;strokeColor=none;fillColor=none;align=left;verticalAlign=top;spacingLeft=4;spacingRight=4;overflow=hidden;rotatable=0;points=[[0,0.5],[1,0.5]];portConstraint=eastwest;whiteSpace=wrap;html=1;" parent="Y9lWMFhnYqN-Vg71fqgo-17" vertex="1"><mxGeometry y="164" width="180" height="26" as="geometry"/></mxCell><mxCell id="Y9lWMFhnYqN-Vg71fqgo-21" value="SmallAsteroid" style="swimlane;fontStyle=1;align=center;verticalAlign=top;childLayout=stackLayout;horizontal=1;startSize=26;horizontalStack=0;resizeParent=1;resizeParentMax=0;resizeLast=0;collapsible=1;marginBottom=0;whiteSpace=wrap;html=1;" parent="1" vertex="1"><mxGeometry x="-1290" y="-1208" width="160" height="34" as="geometry"><mxRectangle x="640" y="320" width="90" height="30" as="alternateBounds"/></mxGeometry></mxCell><mxCell id="Y9lWMFhnYqN-Vg71fqgo-23" value="" style="line;strokeWidth=1;fillColor=none;align=left;verticalAlign=middle;spacingTop=-1;spacingLeft=3;spacingRight=3;rotatable=0;labelPosition=right;points=[];portConstraint=eastwest;strokeColor=inherit;" parent="Y9lWMFhnYqN-Vg71fqgo-21" vertex="1"><mxGeometry y="26" width="160" height="8" as="geometry"/></mxCell><mxCell id="c13DJDwB2PrGR2hZeTVj-3" value="BigAsteroid" style="swimlane;fontStyle=1;align=center;verticalAlign=top;childLayout=stackLayout;horizontal=1;startSize=26;horizontalStack=0;resizeParent=1;resizeParentMax=0;resizeLast=0;collapsible=1;marginBottom=0;whiteSpace=wrap;html=1;" parent="1" vertex="1"><mxGeometry x="-1290" y="-1360" width="160" height="86" as="geometry"><mxRectangle x="640" y="320" width="90" height="30" as="alternateBounds"/></mxGeometry></mxCell><mxCell id="c13DJDwB2PrGR2hZeTVj-18" value="+ split_probability: float" style="text;strokeColor=none;fillColor=none;align=left;verticalAlign=top;spacingLeft=4;spacingRight=4;overflow=hidden;rotatable=0;points=[[0,0.5],[1,0.5]];portConstraint=eastwest;whiteSpace=wrap;html=1;" parent="c13DJDwB2PrGR2hZeTVj-3" vertex="1"><mxGeometry y="26" width="160" height="26" as="geometry"/></mxCell><mxCell id="c13DJDwB2PrGR2hZeTVj-9" value="" style="line;strokeWidth=1;fillColor=none;align=left;verticalAlign=middle;spacingTop=-1;spacingLeft=3;spacingRight=3;rotatable=0;labelPosition=right;points=[];portConstraint=eastwest;strokeColor=inherit;" parent="c13DJDwB2PrGR2hZeTVj-3" vertex="1"><mxGeometry y="52" width="160" height="8" as="geometry"/></mxCell><mxCell id="c13DJDwB2PrGR2hZeTVj-11" value="+ split(): SmallAsteroid[]" style="text;strokeColor=none;fillColor=none;align=left;verticalAlign=top;spacingLeft=4;spacingRight=4;overflow=hidden;rotatable=0;points=[[0,0.5],[1,0.5]];portConstraint=eastwest;whiteSpace=wrap;html=1;" parent="c13DJDwB2PrGR2hZeTVj-3" vertex="1"><mxGeometry y="60" width="160" height="26" as="geometry"/></mxCell><mxCell id="c13DJDwB2PrGR2hZeTVj-12" value="Hitbox" style="swimlane;fontStyle=1;align=center;verticalAlign=top;childLayout=stackLayout;horizontal=1;startSize=26;horizontalStack=0;resizeParent=1;resizeParentMax=0;resizeLast=0;collapsible=1;marginBottom=0;whiteSpace=wrap;html=1;" parent="1" vertex="1"><mxGeometry x="-960" y="-1640" width="270" height="164" as="geometry"/></mxCell><mxCell id="sVbA26OMhiQCjbZiH2BP-6" value="+ x: float" style="text;strokeColor=none;fillColor=none;align=left;verticalAlign=top;spacingLeft=4;spacingRight=4;overflow=hidden;rotatable=0;points=[[0,0.5],[1,0.5]];portConstraint=eastwest;whiteSpace=wrap;html=1;" parent="c13DJDwB2PrGR2hZeTVj-12" vertex="1"><mxGeometry y="26" width="270" height="26" as="geometry"/></mxCell><mxCell id="sVbA26OMhiQCjbZiH2BP-4" value="+ y: float" style="text;strokeColor=none;fillColor=none;align=left;verticalAlign=top;spacingLeft=4;spacingRight=4;overflow=hidden;rotatable=0;points=[[0,0.5],[1,0.5]];portConstraint=eastwest;whiteSpace=wrap;html=1;" parent="c13DJDwB2PrGR2hZeTVj-12" vertex="1"><mxGeometry y="52" width="270" height="26" as="geometry"/></mxCell><mxCell id="c13DJDwB2PrGR2hZeTVj-17" value="+ radius: float" style="text;strokeColor=none;fillColor=none;align=left;verticalAlign=top;spacingLeft=4;spacingRight=4;overflow=hidden;rotatable=0;points=[[0,0.5],[1,0.5]];portConstraint=eastwest;whiteSpace=wrap;html=1;" parent="c13DJDwB2PrGR2hZeTVj-12" vertex="1"><mxGeometry y="78" width="270" height="26" as="geometry"/></mxCell><mxCell id="c13DJDwB2PrGR2hZeTVj-14" value="" style="line;strokeWidth=1;fillColor=none;align=left;verticalAlign=middle;spacingTop=-1;spacingLeft=3;spacingRight=3;rotatable=0;labelPosition=right;points=[];portConstraint=eastwest;strokeColor=inherit;" parent="c13DJDwB2PrGR2hZeTVj-12" vertex="1"><mxGeometry y="104" width="270" height="8" as="geometry"/></mxCell><mxCell id="c13DJDwB2PrGR2hZeTVj-15" value="+ collide_with(other_hitbox: Hitbox): Collision" style="text;strokeColor=none;fillColor=none;align=left;verticalAlign=top;spacingLeft=4;spacingRight=4;overflow=hidden;rotatable=0;points=[[0,0.5],[1,0.5]];portConstraint=eastwest;whiteSpace=wrap;html=1;" parent="c13DJDwB2PrGR2hZeTVj-12" vertex="1"><mxGeometry y="112" width="270" height="26" as="geometry"/></mxCell><mxCell id="WrKVvXKX3kZ2d2W6lTKQ-4" value="+ update_position(x: float; y:float)" style="text;strokeColor=none;fillColor=none;align=left;verticalAlign=top;spacingLeft=4;spacingRight=4;overflow=hidden;rotatable=0;points=[[0,0.5],[1,0.5]];portConstraint=eastwest;whiteSpace=wrap;html=1;" parent="c13DJDwB2PrGR2hZeTVj-12" vertex="1"><mxGeometry y="138" width="270" height="26" as="geometry"/></mxCell><mxCell id="5AKm7OeanH97nsyEIYP--6" value="Asteroid" style="swimlane;fontStyle=1;align=center;verticalAlign=top;childLayout=stackLayout;horizontal=1;startSize=26;horizontalStack=0;resizeParent=1;resizeParentMax=0;resizeLast=0;collapsible=1;marginBottom=0;whiteSpace=wrap;html=1;" parent="1" vertex="1"><mxGeometry x="-1070" y="-1360" width="160" height="216" as="geometry"><mxRectangle x="640" y="320" width="90" height="30" as="alternateBounds"/></mxGeometry></mxCell><mxCell id="5AKm7OeanH97nsyEIYP--7" value="+ x: float" style="text;strokeColor=none;fillColor=none;align=left;verticalAlign=top;spacingLeft=4;spacingRight=4;overflow=hidden;rotatable=0;points=[[0,0.5],[1,0.5]];portConstraint=eastwest;whiteSpace=wrap;html=1;" parent="5AKm7OeanH97nsyEIYP--6" vertex="1"><mxGeometry y="26" width="160" height="26" as="geometry"/></mxCell><mxCell id="5AKm7OeanH97nsyEIYP--8" value="+ y: float" style="text;strokeColor=none;fillColor=none;align=left;verticalAlign=top;spacingLeft=4;spacingRight=4;overflow=hidden;rotatable=0;points=[[0,0.5],[1,0.5]];portConstraint=eastwest;whiteSpace=wrap;html=1;" parent="5AKm7OeanH97nsyEIYP--6" vertex="1"><mxGeometry y="52" width="160" height="26" as="geometry"/></mxCell><mxCell id="5AKm7OeanH97nsyEIYP--9" value="+ move_speed: float" style="text;strokeColor=none;fillColor=none;align=left;verticalAlign=top;spacingLeft=4;spacingRight=4;overflow=hidden;rotatable=0;points=[[0,0.5],[1,0.5]];portConstraint=eastwest;whiteSpace=wrap;html=1;" parent="5AKm7OeanH97nsyEIYP--6" vertex="1"><mxGeometry y="78" width="160" height="26" as="geometry"/></mxCell><mxCell id="5AKm7OeanH97nsyEIYP--10" value="+ sprite: Sprite" style="text;strokeColor=none;fillColor=none;align=left;verticalAlign=top;spacingLeft=4;spacingRight=4;overflow=hidden;rotatable=0;points=[[0,0.5],[1,0.5]];portConstraint=eastwest;whiteSpace=wrap;html=1;" parent="5AKm7OeanH97nsyEIYP--6" vertex="1"><mxGeometry y="104" width="160" height="26" as="geometry"/></mxCell><mxCell id="5AKm7OeanH97nsyEIYP--11" value="+ dmg: int" style="text;strokeColor=none;fillColor=none;align=left;verticalAlign=top;spacingLeft=4;spacingRight=4;overflow=hidden;rotatable=0;points=[[0,0.5],[1,0.5]];portConstraint=eastwest;whiteSpace=wrap;html=1;" parent="5AKm7OeanH97nsyEIYP--6" vertex="1"><mxGeometry y="130" width="160" height="26" as="geometry"/></mxCell><mxCell id="5AKm7OeanH97nsyEIYP--12" value="+ hp: int" style="text;strokeColor=none;fillColor=none;align=left;verticalAlign=top;spacingLeft=4;spacingRight=4;overflow=hidden;rotatable=0;points=[[0,0.5],[1,0.5]];portConstraint=eastwest;whiteSpace=wrap;html=1;" parent="5AKm7OeanH97nsyEIYP--6" vertex="1"><mxGeometry y="156" width="160" height="26" as="geometry"/></mxCell><mxCell id="5AKm7OeanH97nsyEIYP--13" value="" style="line;strokeWidth=1;fillColor=none;align=left;verticalAlign=middle;spacingTop=-1;spacingLeft=3;spacingRight=3;rotatable=0;labelPosition=right;points=[];portConstraint=eastwest;strokeColor=inherit;" parent="5AKm7OeanH97nsyEIYP--6" vertex="1"><mxGeometry y="182" width="160" height="8" as="geometry"/></mxCell><mxCell id="5AKm7OeanH97nsyEIYP--14" value="+ move(x: float; y: float)" style="text;strokeColor=none;fillColor=none;align=left;verticalAlign=top;spacingLeft=4;spacingRight=4;overflow=hidden;rotatable=0;points=[[0,0.5],[1,0.5]];portConstraint=eastwest;whiteSpace=wrap;html=1;" parent="5AKm7OeanH97nsyEIYP--6" vertex="1"><mxGeometry y="190" width="160" height="26" as="geometry"/></mxCell><mxCell id="5AKm7OeanH97nsyEIYP--15" value="" style="endArrow=block;endSize=16;endFill=0;html=1;rounded=0;entryX=0;entryY=0.5;entryDx=0;entryDy=0;exitX=1;exitY=0.5;exitDx=0;exitDy=0;" parent="1" source="c13DJDwB2PrGR2hZeTVj-18" target="5AKm7OeanH97nsyEIYP--7" edge="1"><mxGeometry x="-0.0054" width="160" relative="1" as="geometry"><mxPoint x="-1290" y="-1050" as="sourcePoint"/><mxPoint x="-1130" y="-1050" as="targetPoint"/><mxPoint as="offset"/></mxGeometry></mxCell><mxCell id="5AKm7OeanH97nsyEIYP--16" value="" style="endArrow=block;endSize=16;endFill=0;html=1;rounded=0;entryX=0;entryY=0.5;entryDx=0;entryDy=0;exitX=1;exitY=0.5;exitDx=0;exitDy=0;" parent="1" source="Y9lWMFhnYqN-Vg71fqgo-21" target="5AKm7OeanH97nsyEIYP--12" edge="1"><mxGeometry width="160" relative="1" as="geometry"><mxPoint x="-1290" y="-1050" as="sourcePoint"/><mxPoint x="-1130" y="-1050" as="targetPoint"/></mxGeometry></mxCell><mxCell id="qjJbdOYnkFVx47R3Ud2m-2" value="" style="endArrow=diamondThin;endFill=0;endSize=24;html=1;rounded=0;entryX=1;entryY=0.5;entryDx=0;entryDy=0;exitX=0;exitY=0.5;exitDx=0;exitDy=0;" parent="1" edge="1"><mxGeometry width="160" relative="1" as="geometry"><mxPoint x="-500" y="-1330" as="sourcePoint"/><mxPoint x="-600" y="-1330" as="targetPoint"/></mxGeometry></mxCell><mxCell id="qjJbdOYnkFVx47R3Ud2m-3" value="" style="endArrow=diamondThin;endFill=0;endSize=24;html=1;rounded=0;exitX=0.961;exitY=1.095;exitDx=0;exitDy=0;exitPerimeter=0;entryX=0.402;entryY=-0.006;entryDx=0;entryDy=0;entryPerimeter=0;" parent="1" source="WrKVvXKX3kZ2d2W6lTKQ-4" target="Y9lWMFhnYqN-Vg71fqgo-1" edge="1"><mxGeometry width="160" relative="1" as="geometry"><mxPoint x="-800" y="-1470" as="sourcePoint"/><mxPoint x="-690" y="-1370" as="targetPoint"/></mxGeometry></mxCell><mxCell id="qjJbdOYnkFVx47R3Ud2m-4" value="" style="endArrow=diamondThin;endFill=0;endSize=24;html=1;rounded=0;entryX=0.805;entryY=-0.008;entryDx=0;entryDy=0;exitX=0.07;exitY=1.054;exitDx=0;exitDy=0;exitPerimeter=0;entryPerimeter=0;" parent="1" source="WrKVvXKX3kZ2d2W6lTKQ-4" target="5AKm7OeanH97nsyEIYP--6" edge="1"><mxGeometry width="160" relative="1" as="geometry"><mxPoint x="-810" y="-1430" as="sourcePoint"/><mxPoint x="-650" y="-1430" as="targetPoint"/></mxGeometry></mxCell><mxCell id="qjJbdOYnkFVx47R3Ud2m-13" value="" style="endArrow=diamondThin;endFill=0;endSize=24;html=1;rounded=0;entryX=0;entryY=0.5;entryDx=0;entryDy=0;exitX=1;exitY=0.5;exitDx=0;exitDy=0;" parent="1" source="sVbA26OMhiQCjbZiH2BP-4" target="sVbA26OMhiQCjbZiH2BP-1" edge="1"><mxGeometry width="160" relative="1" as="geometry"><mxPoint x="-870" y="-1300" as="sourcePoint"/><mxPoint x="-710" y="-1300" as="targetPoint"/></mxGeometry></mxCell><mxCell id="qjJbdOYnkFVx47R3Ud2m-26" value="&amp;lt;&amp;lt;create&amp;gt;&amp;gt;" style="endArrow=open;endSize=12;dashed=1;html=1;rounded=0;exitX=0.5;exitY=0;exitDx=0;exitDy=0;" parent="1" source="Y9lWMFhnYqN-Vg71fqgo-5" edge="1"><mxGeometry width="160" relative="1" as="geometry"><mxPoint x="-870" y="-1300" as="sourcePoint"/><mxPoint x="-410" y="-1450" as="targetPoint"/></mxGeometry></mxCell><mxCell id="qjJbdOYnkFVx47R3Ud2m-27" value="" style="endArrow=diamondThin;endFill=1;endSize=24;html=1;rounded=0;entryX=0.94;entryY=0.007;entryDx=0;entryDy=0;exitX=0.054;exitY=1.071;exitDx=0;exitDy=0;entryPerimeter=0;exitPerimeter=0;" parent="1" source="Y9lWMFhnYqN-Vg71fqgo-37" target="Y9lWMFhnYqN-Vg71fqgo-9" edge="1"><mxGeometry width="160" relative="1" as="geometry"><mxPoint x="-870" y="-1300" as="sourcePoint"/><mxPoint x="-710" y="-1300" as="targetPoint"/></mxGeometry></mxCell><mxCell id="qjJbdOYnkFVx47R3Ud2m-31" value="" style="endArrow=diamondThin;endFill=1;endSize=24;html=1;rounded=0;entryX=0.94;entryY=0.007;entryDx=0;entryDy=0;exitX=0.054;exitY=1.071;exitDx=0;exitDy=0;entryPerimeter=0;exitPerimeter=0;" parent="1" edge="1"><mxGeometry width="160" relative="1" as="geometry"><mxPoint x="-920" y="-1143" as="sourcePoint"/><mxPoint x="-920" y="-1070" as="targetPoint"/></mxGeometry></mxCell><mxCell id="qjJbdOYnkFVx47R3Ud2m-33" value="1" style="text;html=1;align=center;verticalAlign=middle;resizable=0;points=[];autosize=1;strokeColor=none;fillColor=none;" parent="1" vertex="1"><mxGeometry x="-770" y="-1152" width="30" height="30" as="geometry"/></mxCell><mxCell id="qjJbdOYnkFVx47R3Ud2m-34" value="*" style="text;html=1;align=center;verticalAlign=middle;resizable=0;points=[];autosize=1;strokeColor=none;fillColor=none;" parent="1" vertex="1"><mxGeometry x="-930" y="-1144" width="30" height="30" as="geometry"/></mxCell><mxCell id="qjJbdOYnkFVx47R3Ud2m-35" value="1" style="text;html=1;align=center;verticalAlign=middle;resizable=0;points=[];autosize=1;strokeColor=none;fillColor=none;" parent="1" vertex="1"><mxGeometry x="-525" y="-1332" width="30" height="30" as="geometry"/></mxCell><mxCell id="qjJbdOYnkFVx47R3Ud2m-37" style="edgeStyle=orthogonalEdgeStyle;rounded=0;orthogonalLoop=1;jettySize=auto;html=1;exitX=1;exitY=0.5;exitDx=0;exitDy=0;entryX=1;entryY=0.5;entryDx=0;entryDy=0;endArrow=diamondThin;endFill=1;endSize=24;" parent="1" source="sVbA26OMhiQCjbZiH2BP-1" target="Y9lWMFhnYqN-Vg71fqgo-12" edge="1"><mxGeometry relative="1" as="geometry"><mxPoint x="-620" y="-1040" as="targetPoint"/></mxGeometry></mxCell><mxCell id="qjJbdOYnkFVx47R3Ud2m-38" value="*" style="text;html=1;align=center;verticalAlign=middle;resizable=0;points=[];autosize=1;strokeColor=none;fillColor=none;" parent="1" vertex="1"><mxGeometry x="-325" y="-1600" width="30" height="30" as="geometry"/></mxCell><mxCell id="qjJbdOYnkFVx47R3Ud2m-39" value="1" style="text;html=1;align=center;verticalAlign=middle;resizable=0;points=[];autosize=1;strokeColor=none;fillColor=none;" parent="1" vertex="1"><mxGeometry x="-535" y="-1612" width="30" height="30" as="geometry"/></mxCell><mxCell id="qjJbdOYnkFVx47R3Ud2m-41" value="1" style="text;html=1;align=center;verticalAlign=middle;resizable=0;points=[];autosize=1;strokeColor=none;fillColor=none;" parent="1" vertex="1"><mxGeometry x="-700" y="-1390" width="30" height="30" as="geometry"/></mxCell><mxCell id="qjJbdOYnkFVx47R3Ud2m-42" value="1" style="text;html=1;align=center;verticalAlign=middle;resizable=0;points=[];autosize=1;strokeColor=none;fillColor=none;" parent="1" vertex="1"><mxGeometry x="-940" y="-1390" width="30" height="30" as="geometry"/></mxCell><mxCell id="qjJbdOYnkFVx47R3Ud2m-43" value="&amp;lt;&amp;lt;create&amp;gt;&amp;gt;" style="endArrow=open;endSize=12;dashed=1;html=1;rounded=0;" parent="1" edge="1"><mxGeometry width="160" relative="1" as="geometry"><mxPoint x="-950" y="-1054" as="sourcePoint"/><mxPoint x="-950" y="-1144" as="targetPoint"/></mxGeometry></mxCell><mxCell id="qjJbdOYnkFVx47R3Ud2m-44" value="" style="endArrow=none;dashed=1;html=1;dashPattern=1 3;strokeWidth=1;rounded=0;entryX=-0.005;entryY=0.105;entryDx=0;entryDy=0;entryPerimeter=0;" parent="1" target="Y9lWMFhnYqN-Vg71fqgo-9" edge="1"><mxGeometry width="50" height="50" relative="1" as="geometry"><mxPoint x="-950" y="-1053" as="sourcePoint"/><mxPoint x="-810" y="-1110" as="targetPoint"/></mxGeometry></mxCell><mxCell id="2" value="Special Weapon" style="swimlane;fontStyle=1;align=center;verticalAlign=top;childLayout=stackLayout;horizontal=1;startSize=26;horizontalStack=0;resizeParent=1;resizeParentMax=0;resizeLast=0;collapsible=1;marginBottom=0;" vertex="1" parent="1"><mxGeometry x="-500" y="-1208" width="180" height="60" as="geometry"/></mxCell><mxCell id="4" value="" style="line;strokeWidth=1;fillColor=none;align=left;verticalAlign=middle;spacingTop=-1;spacingLeft=3;spacingRight=3;rotatable=0;labelPosition=right;points=[];portConstraint=eastwest;strokeColor=inherit;" vertex="1" parent="2"><mxGeometry y="26" width="180" height="8" as="geometry"/></mxCell><mxCell id="5" value="+ shoot(x:float, y:float): Bullet" style="text;strokeColor=none;fillColor=none;align=left;verticalAlign=top;spacingLeft=4;spacingRight=4;overflow=hidden;rotatable=0;points=[[0,0.5],[1,0.5]];portConstraint=eastwest;" vertex="1" parent="2"><mxGeometry y="34" width="180" height="26" as="geometry"/></mxCell><mxCell id="8" value="" style="endArrow=block;endSize=16;endFill=0;html=1;rounded=0;" edge="1" parent="1" source="2" target="Y9lWMFhnYqN-Vg71fqgo-8"><mxGeometry x="-0.0054" width="160" relative="1" as="geometry"><mxPoint x="-410" y="-1210" as="sourcePoint"/><mxPoint x="-350" y="-1230" as="targetPoint"/><mxPoint as="offset"/></mxGeometry></mxCell></root></mxGraphModel></diagram></mxfile>